HIERARCHY
ROOT Hips
{
	OFFSET 0.000000 0.000000 0.000000
	CHANNELS 6 Xposition Yposition Zposition Xrotation Yrotation Zrotation
	JOINT LeftUpLeg_virtual
	{
		OFFSET 0.000000 0.000000 0.000000
		CHANNELS 3 Xrotation Yrotation Zrotation
		JOINT LeftUpLeg
		{
			OFFSET 15.427100 -6.655098 0.678600
			CHANNELS 3 Xrotation Yrotation Zrotation
			JOINT LeftLeg
			{
				OFFSET 4.081073 -39.591068 13.024000
				CHANNELS 3 Xrotation Yrotation Zrotation
				JOINT LeftFoot
				{
					OFFSET -4.081074 -37.707932 -15.979700
					CHANNELS 3 Xrotation Yrotation Zrotation
					JOINT LeftToeBase
					{
						OFFSET 5.346399 -15.068900 20.645000
						CHANNELS 3 Xrotation Yrotation Zrotation
						JOINT LeftToe_End
						{
							OFFSET 2.754700 0.931300 11.300900
							CHANNELS 3 Xrotation Yrotation Zrotation
							End Site
							{
								OFFSET 0 0 0
							}
						}
					}
				}
			}
		}
	}
	JOINT RightUpLeg_virtual
	{
		OFFSET 0.000000 0.000000 0.000000
		CHANNELS 3 Xrotation Yrotation Zrotation
		JOINT RightUpLeg
		{
			OFFSET -15.569500 -6.655098 0.678600
			CHANNELS 3 Xrotation Yrotation Zrotation
			JOINT RightLeg
			{
				OFFSET -4.081825 -39.591045 13.023800
				CHANNELS 3 Xrotation Yrotation Zrotation
				JOINT RightFoot
				{
					OFFSET 4.081824 -37.707954 -15.979600
					CHANNELS 3 Xrotation Yrotation Zrotation
					JOINT RightToeBase
					{
						OFFSET -5.346400 -15.068900 20.645000
						CHANNELS 3 Xrotation Yrotation Zrotation
						JOINT RightToe_End
						{
							OFFSET -2.754700 0.931300 11.300900
							CHANNELS 3 Xrotation Yrotation Zrotation
							End Site
							{
								OFFSET 0 0 0
							}
						}
					}
				}
			}
		}
	}
	JOINT Spine_virtual
	{
		OFFSET 0.000000 0.000000 0.000000
		CHANNELS 3 Xrotation Yrotation Zrotation
		JOINT Spine
		{
			OFFSET -0.279200 12.230698 -2.892100
			CHANNELS 3 Xrotation Yrotation Zrotation
			JOINT Spine1
			{
				OFFSET -0.232667 10.192268 -1.242267
				CHANNELS 3 Xrotation Yrotation Zrotation
				JOINT Spine1_split
				{
					OFFSET -0.232667 10.192268 -1.242267
					CHANNELS 3 Xrotation Yrotation Zrotation
					JOINT Spine2
					{
						OFFSET -0.232667 10.192268 -1.242267
						CHANNELS 3 Xrotation Yrotation Zrotation
						JOINT Neck_virtual
						{
							OFFSET 0.000000 0.000000 0.000000
							CHANNELS 3 Xrotation Yrotation Zrotation
							JOINT Neck
							{
								OFFSET -0.418800 17.814194 8.416900
								CHANNELS 3 Xrotation Yrotation Zrotation
								JOINT Head
								{
									OFFSET 0.000000 7.031097 3.806800
									CHANNELS 3 Xrotation Yrotation Zrotation
									JOINT HeadTop_End
									{
										OFFSET 0.000000 24.646606 12.978600
										CHANNELS 3 Xrotation Yrotation Zrotation
										End Site
										{
											OFFSET 0 0 0
										}
									}
								}
							}
						}
						JOINT LeftShoulder_virtual
						{
							OFFSET 0.000000 0.000000 0.000000
							CHANNELS 3 Xrotation Yrotation Zrotation
							JOINT LeftShoulder
							{
								OFFSET 8.476499 7.247704 -3.868750
								CHANNELS 3 Xrotation Yrotation Zrotation
								JOINT LeftShoulder_split
								{
									OFFSET 8.476499 7.247704 -3.868750
									CHANNELS 3 Xrotation Yrotation Zrotation
									JOINT LeftArm
									{
										OFFSET 9.308998 -2.777710 0.208600
										CHANNELS 3 Xrotation Yrotation Zrotation
										JOINT LeftForeArm
										{
											OFFSET 29.972298 0.000000 0.000000
											CHANNELS 3 Xrotation Yrotation Zrotation
											JOINT LeftHand
											{
												OFFSET 26.026505 0.000000 0.000000
												CHANNELS 3 Xrotation Yrotation Zrotation
												End Site
												{
													OFFSET 0 0 0
												}
											}
										}
									}
								}
							}
						}
						JOINT RightShoulder_virtual
						{
							OFFSET 0.000000 0.000000 0.000000
							CHANNELS 3 Xrotation Yrotation Zrotation
							JOINT RightShoulder
							{
								OFFSET -7.570500 7.247704 -3.868750
								CHANNELS 3 Xrotation Yrotation Zrotation
								JOINT RightShoulder_split
								{
									OFFSET -7.570500 7.247704 -3.868750
									CHANNELS 3 Xrotation Yrotation Zrotation
									JOINT RightArm
									{
										OFFSET -9.308998 -2.777710 0.208500
										CHANNELS 3 Xrotation Yrotation Zrotation
										JOINT RightForeArm
										{
											OFFSET -29.972300 0.000000 0.000000
											CHANNELS 3 Xrotation Yrotation Zrotation
											JOINT RightHand
											{
												OFFSET -26.026505 0.000000 0.000000
												CHANNELS 3 Xrotation Yrotation Zrotation
												End Site
												{
													OFFSET 0 0 0
												}
											}
										}
									}
								}
							}
						}
					}
				}
			}
		}
	}
}
MOTION
Frames: 4
Frame Time: 0.03333333
19.344906 83.560829 -23.036499 0.000000 0.000000 0.000000 155.678412 -41.817621 163.890471 -14.694652 29.160472 22.246860 25.952043 17.571423 -1.705381 -14.041639 16.561964 -32.023072 -0.252454 -0.238156 0.654314 0.000000 0.000000 0.000000 156.329643 -38.735526 164.092959 -54.150600 16.732302 9.513386 26.334389 -1.154898 -1.549921 4.252885 -2.624703 8.121257 4.916146 0.971276 -0.263352 0.000000 0.000000 0.000000 157.660068 -41.167268 164.501609 35.566981 0.612888 9.771062 -9.449379 -2.481304 2.306332 0.730325 1.772468 0.540758 0.000000 0.000000 0.000000 -9.499089 -2.056819 2.126465 -10.200655 -0.221673 -8.812264 -19.708077 -12.528494 7.498166 0.000000 0.000000 0.000000 -10.064741 -1.862712 1.994603 6.928575 -14.935722 25.604383 3.857717 1.324589 2.066342 -69.545218 -1.910717 -45.615237 -1.645172 -60.702862 4.752248 0.000000 0.000000 0.000000 -9.639029 -1.563553 2.359486 5.985390 4.373819 -2.209751 -2.753633 0.855375 2.294245 -0.370574 5.664668 68.023445 14.308173 25.868652 -3.833147 0.000000 0.000000 0.000000 
19.158319 83.949104 -23.255318 0.000000 0.000000 0.000000 155.949352 -42.029057 164.233347 -13.577935 29.225813 21.496318 24.847752 17.723549 -1.544912 -13.590185 16.495139 -31.941100 -0.186043 -0.224683 0.566003 0.000000 0.000000 0.000000 156.554302 -39.000954 164.375524 -53.275926 16.590152 9.268395 25.827903 -1.159850 -1.668292 4.026556 -2.417594 7.981465 4.793265 1.009603 -0.219702 0.000000 0.000000 0.000000 157.903223 -41.399791 164.845550 35.311590 0.602719 9.706049 -9.389464 -2.491452 2.421564 0.675992 1.857804 0.534572 0.000000 0.000000 0.000000 -9.372131 -2.076653 2.213240 -11.014472 -3.475770 -7.623767 -17.505927 -16.204926 8.329526 0.000000 0.000000 0.000000 -9.952068 -1.898945 2.106142 6.602883 -14.352280 24.765045 3.885860 1.348174 2.392483 -69.371151 -1.330842 -45.834620 -1.563240 -60.168530 4.797835 0.000000 0.000000 0.000000 -9.468516 -1.584402 2.433218 5.858816 3.761602 -2.454801 -2.953814 0.940497 2.265713 -0.209824 6.128696 68.353815 14.033090 25.940249 -3.586053 0.000000 0.000000 0.000000 
18.979532 84.321487 -23.453072 0.000000 0.000000 0.000000 156.202656 -42.223632 164.565854 -12.524890 29.288449 20.746471 23.807323 17.862265 -1.391636 -13.151855 16.428205 -31.896854 -0.134506 -0.210469 0.498982 0.000000 0.000000 0.000000 156.762131 -39.230824 164.649701 -52.454746 16.427817 9.003004 25.338147 -1.135824 -1.786234 3.848857 -2.204731 7.866940 4.662606 1.044391 -0.173458 0.000000 0.000000 0.000000 158.111380 -41.589770 165.186199 35.082812 0.635774 9.640662 -9.346259 -2.475895 2.493334 0.690006 1.901645 0.509654 0.000000 0.000000 0.000000 -9.247213 -2.076487 2.264929 -11.710990 -6.332924 -6.817648 -15.634484 -19.010819 8.823221 0.000000 0.000000 0.000000 -9.858990 -1.910441 2.181781 6.323642 -13.919096 23.870442 3.935124 1.485510 2.748441 -69.236344 -0.822421 -46.031753 -1.716005 -59.573081 4.584927 0.000000 0.000000 0.000000 -9.318220 -1.590026 2.461485 5.737639 3.173788 -2.639969 -3.119610 0.958571 2.289855 -0.133670 6.577000 68.701731 13.782185 26.105717 -3.349658 0.000000 0.000000 0.000000 
18.805761 84.668976 -23.611382 0.000000 0.000000 0.000000 156.434555 -42.406759 164.892801 -11.553865 29.337749 20.012593 22.852618 17.991903 -1.255674 -12.718584 16.361206 -31.877818 -0.096201 -0.195343 0.448833 0.000000 0.000000 0.000000 156.948595 -39.436423 164.919849 -51.702104 16.210614 8.699726 24.914298 -1.086174 -1.891804 3.678654 -2.011743 7.748582 4.589899 1.072915 -0.122050 0.000000 0.000000 0.000000 158.283214 -41.753486 165.516575 34.866203 0.700507 9.583905 -9.309760 -2.440861 2.518726 0.739936 1.934196 0.510524 0.000000 0.000000 0.000000 -9.131244 -2.062580 2.279191 -12.309502 -8.693338 -6.408773 -14.132846 -20.848015 8.945693 0.000000 0.000000 0.000000 -9.786247 -1.902014 2.221871 6.084635 -13.572470 23.010663 3.937182 1.646404 3.049521 -69.130961 -0.517894 -46.187894 -2.056638 -59.095043 4.162127 0.000000 0.000000 0.000000 -9.193071 -1.586551 2.444731 5.620325 2.638807 -2.778181 -3.203483 0.975595 2.345081 -0.144160 6.992034 69.080663 13.588417 26.380909 -3.145976 0.000000 0.000000 0.000000 
